<?xml version="1.0" encoding="UTF-8" standalone="no"?><!DOCTYPE svg PUBLIC "-//W3C//DTD SVG 1.1//EN" "http://www.w3.org/Graphics/SVG/1.1/DTD/svg11.dtd"><svg width="100%" height="100%" viewBox="0 0 800 800" version="1.1" xmlns="http://www.w3.org/2000/svg" xmlns:xlink="http://www.w3.org/1999/xlink" xml:space="preserve" xmlns:serif="http://www.serif.com/" style="fill-rule:evenodd;clip-rule:evenodd;stroke-linejoin:round;stroke-miterlimit:2;"><g><g><path d="M411.061,537.8c0,-3.052 -2.478,-5.531 -5.53,-5.531l-11.062,0c-3.052,0 -5.53,2.479 -5.53,5.531l-0,88.961c-0,3.053 2.478,5.531 5.53,5.531l11.062,0c3.052,0 5.53,-2.478 5.53,-5.531l0,-88.961Z" style="fill:#0a0a0a;"/><path d="M678.62,654.414c3.052,0 5.53,-2.478 5.53,-5.53l0,-11.061c0,-3.053 -2.478,-5.531 -5.53,-5.531l-557.24,0c-3.052,0 -5.53,2.478 -5.53,5.531l-0,11.061c-0,3.052 2.478,5.53 5.53,5.53l557.24,0Z" style="fill:#0a0a0a;"/><path d="M491.19,629.167c-0,-7.829 -6.357,-14.186 -14.186,-14.186l-154.008,-0c-7.829,-0 -14.186,6.357 -14.186,14.186l0,28.372c0,7.83 6.357,14.186 14.186,14.186l154.008,0c7.829,0 14.186,-6.356 14.186,-14.186l-0,-28.372Z" style="fill:#ee2647;"/></g><g><path d="M684.15,79.295c0,-21.215 -17.223,-38.439 -38.438,-38.439l-491.424,0c-21.215,0 -38.438,17.224 -38.438,38.439l-0,76.878c-0,21.215 17.223,38.439 38.438,38.439l491.424,-0c21.215,-0 38.438,-17.224 38.438,-38.439l0,-76.878Z"/><path d="M246.129,91.69c3.053,-0 5.531,-2.478 5.531,-5.531l0,-11.061c0,-3.052 -2.478,-5.53 -5.531,-5.53l-88.961,-0c-3.053,-0 -5.531,2.478 -5.531,5.53l0,11.061c0,3.053 2.478,5.531 5.531,5.531l88.961,-0Z" style="fill:#ee2647;"/><path d="M246.129,128.795c3.053,0 5.531,-2.478 5.531,-5.53l0,-11.062c0,-3.052 -2.478,-5.53 -5.531,-5.53l-88.961,-0c-3.053,-0 -5.531,2.478 -5.531,5.53l0,11.062c0,3.052 2.478,5.53 5.531,5.53l88.961,0Z" style="fill:#ee2647;"/><path d="M246.129,165.91c3.053,-0 5.531,-2.479 5.531,-5.531l0,-11.061c0,-3.052 -2.478,-5.531 -5.531,-5.531l-88.961,0c-3.053,0 -5.531,2.479 -5.531,5.531l0,11.061c0,3.052 2.478,5.531 5.531,5.531l88.961,-0Z" style="fill:#ee2647;"/><circle cx="607.392" cy="117.734" r="18.5" style="fill:#ee2647;"/></g><g><path d="M684.15,260.024c0,-21.215 -17.223,-38.439 -38.438,-38.439l-491.424,-0c-21.215,-0 -38.438,17.224 -38.438,38.439l-0,76.877c-0,21.215 17.223,38.439 38.438,38.439l491.424,0c21.215,0 38.438,-17.224 38.438,-38.439l0,-76.877Z"/><path d="M246.129,272.418c3.053,0 5.531,-2.478 5.531,-5.53l0,-11.062c0,-3.052 -2.478,-5.53 -5.531,-5.53l-88.961,-0c-3.053,-0 -5.531,2.478 -5.531,5.53l0,11.062c0,3.052 2.478,5.53 5.531,5.53l88.961,0Z" style="fill:#ee2647;"/><path d="M246.129,309.524c3.053,-0 5.531,-2.479 5.531,-5.531l0,-11.061c0,-3.052 -2.478,-5.531 -5.531,-5.531l-88.961,0c-3.053,0 -5.531,2.479 -5.531,5.531l0,11.061c0,3.052 2.478,5.531 5.531,5.531l88.961,-0Z" style="fill:#ee2647;"/><path d="M246.129,346.638c3.053,0 5.531,-2.478 5.531,-5.531l0,-11.061c0,-3.052 -2.478,-5.53 -5.531,-5.53l-88.961,-0c-3.053,-0 -5.531,2.478 -5.531,5.53l0,11.061c0,3.053 2.478,5.531 5.531,5.531l88.961,0Z" style="fill:#ee2647;"/><circle cx="607.392" cy="298.462" r="18.5" style="fill:#ee2647;"/></g><g><path d="M684.15,438.439c0,-21.215 -17.223,-38.439 -38.438,-38.439l-491.424,0c-21.215,0 -38.438,17.224 -38.438,38.439l-0,76.878c-0,21.215 17.223,38.438 38.438,38.438l491.424,0c21.215,0 38.438,-17.223 38.438,-38.438l0,-76.878Z"/><path d="M246.129,450.833c3.053,0 5.531,-2.478 5.531,-5.53l0,-11.061c0,-3.053 -2.478,-5.531 -5.531,-5.531l-88.961,0c-3.053,0 -5.531,2.478 -5.531,5.531l0,11.061c0,3.052 2.478,5.53 5.531,5.53l88.961,0Z" style="fill:#ee2647;"/><path d="M246.129,487.939c3.053,-0 5.531,-2.478 5.531,-5.531l0,-11.061c0,-3.052 -2.478,-5.53 -5.531,-5.53l-88.961,-0c-3.053,-0 -5.531,2.478 -5.531,5.53l0,11.061c0,3.053 2.478,5.531 5.531,5.531l88.961,-0Z" style="fill:#ee2647;"/><path d="M246.129,525.053c3.053,0 5.531,-2.478 5.531,-5.53l0,-11.061c0,-3.053 -2.478,-5.531 -5.531,-5.531l-88.961,0c-3.053,0 -5.531,2.478 -5.531,5.531l0,11.061c0,3.052 2.478,5.53 5.531,5.53l88.961,0Z" style="fill:#ee2647;"/><circle cx="607.392" cy="476.878" r="18.5" style="fill:#ee2647;"/></g></g></svg>