<?xml version="1.0" encoding="UTF-8" standalone="no"?><!DOCTYPE svg PUBLIC "-//W3C//DTD SVG 1.1//EN" "http://www.w3.org/Graphics/SVG/1.1/DTD/svg11.dtd"><svg width="100%" height="100%" viewBox="0 0 800 800" version="1.1" xmlns="http://www.w3.org/2000/svg" xmlns:xlink="http://www.w3.org/1999/xlink" xml:space="preserve" xmlns:serif="http://www.serif.com/" style="fill-rule:evenodd;clip-rule:evenodd;stroke-linejoin:round;stroke-miterlimit:2;"><path d="M624.208,234.454c0,-18.077 -14.676,-32.753 -32.753,-32.753l-381.926,-0c-18.077,-0 -32.753,14.676 -32.753,32.753l-0,332.057c-0,18.077 14.676,32.753 32.753,32.753l381.926,0c18.077,0 32.753,-14.676 32.753,-32.753l0,-332.057Z"/><clipPath id="_clip1"><path d="M624.208,234.454c0,-18.077 -14.676,-32.753 -32.753,-32.753l-381.926,-0c-18.077,-0 -32.753,14.676 -32.753,32.753l-0,332.057c-0,18.077 14.676,32.753 32.753,32.753l381.926,0c18.077,0 32.753,-14.676 32.753,-32.753l0,-332.057Z"/></clipPath><g clip-path="url(#_clip1)"><g><rect x="110.265" y="160.804" width="582.29" height="85.692" style="fill:#090909;"/><path d="M596.795,224.705c0,-5.2 -4.221,-9.422 -9.421,-9.422l-370.198,-0c-5.2,-0 -9.422,4.222 -9.422,9.422c-0,5.2 4.222,9.422 9.422,9.422l370.198,-0c5.2,-0 9.421,-4.222 9.421,-9.422Z" style="fill:#ee2647;"/><rect x="127.886" y="566.393" width="533.677" height="77.375" style="fill:#090909;"/></g><g><g><path d="M278.978,343.197c-0,-5.09 -4.133,-9.223 -9.223,-9.223l-48.627,0c-5.09,0 -9.223,4.133 -9.223,9.223c-0,5.09 4.133,9.223 9.223,9.223l48.627,-0c5.09,-0 9.223,-4.133 9.223,-9.223Z" style="fill:#ee2647;"/><path d="M278.978,388.831c-0,-5.091 -4.133,-9.223 -9.223,-9.223l-48.627,-0c-5.09,-0 -9.223,4.132 -9.223,9.223c-0,5.09 4.133,9.222 9.223,9.222l48.627,0c5.09,0 9.223,-4.132 9.223,-9.222Z" style="fill:#ee2647;"/><path d="M278.978,432.89c-0,-5.09 -4.133,-9.223 -9.223,-9.223l-48.627,0c-5.09,0 -9.223,4.133 -9.223,9.223c-0,5.09 4.133,9.223 9.223,9.223l48.627,-0c5.09,-0 9.223,-4.133 9.223,-9.223Z" style="fill:#ee2647;"/><path d="M278.978,478.603c-0,-5.09 -4.133,-9.223 -9.223,-9.223l-48.627,0c-5.09,0 -9.223,4.133 -9.223,9.223c-0,5.09 4.133,9.223 9.223,9.223l48.627,-0c5.09,-0 9.223,-4.133 9.223,-9.223Z" style="fill:#ee2647;"/><path d="M278.978,527.268c-0,-5.091 -4.133,-9.223 -9.223,-9.223l-48.627,-0c-5.09,-0 -9.223,4.132 -9.223,9.223c-0,5.09 4.133,9.222 9.223,9.222l48.627,0c5.09,0 9.223,-4.132 9.223,-9.222Z" style="fill:#ee2647;"/><path d="M278.978,294.05c-0,-5.09 -4.133,-9.223 -9.223,-9.223l-48.627,0c-5.09,0 -9.223,4.133 -9.223,9.223c-0,5.09 4.133,9.223 9.223,9.223l48.627,-0c5.09,-0 9.223,-4.133 9.223,-9.223Z" style="fill:#ee2647;"/></g><g><path d="M553.256,343.197c0,-5.09 -4.132,-9.223 -9.223,-9.223l-180.8,0c-5.09,0 -9.223,4.133 -9.223,9.223c0,5.09 4.133,9.223 9.223,9.223l180.8,-0c5.091,-0 9.223,-4.133 9.223,-9.223Z" style="fill:#757575;"/><path d="M582.576,388.831c-0,-5.091 -4.133,-9.223 -9.223,-9.223l-210.12,-0c-5.09,-0 -9.223,4.132 -9.223,9.223c0,5.09 4.133,9.222 9.223,9.222l210.12,0c5.09,0 9.223,-4.132 9.223,-9.222Z" style="fill:#757575;"/><path d="M468.293,432.89c0,-5.09 -4.132,-9.223 -9.223,-9.223l-95.837,0c-5.09,0 -9.223,4.133 -9.223,9.223c0,5.09 4.133,9.223 9.223,9.223l95.837,-0c5.091,-0 9.223,-4.133 9.223,-9.223Z" style="fill:#757575;"/><path d="M520.952,478.603c0,-5.09 -4.133,-9.223 -9.223,-9.223l-148.496,0c-5.09,0 -9.223,4.133 -9.223,9.223c0,5.09 4.133,9.223 9.223,9.223l148.496,-0c5.09,-0 9.223,-4.133 9.223,-9.223Z" style="fill:#757575;"/><path d="M582.576,527.268c-0,-5.091 -4.133,-9.223 -9.223,-9.223l-152.978,-0c-5.091,-0 -9.223,4.132 -9.223,9.223c-0,5.09 4.132,9.222 9.223,9.222l152.978,0c5.09,0 9.223,-4.132 9.223,-9.222Z" style="fill:#757575;"/><path d="M388.047,527.268c-0,-5.091 -4.133,-9.223 -9.223,-9.223l-15.591,-0c-5.09,-0 -9.223,4.132 -9.223,9.223c0,5.09 4.133,9.222 9.223,9.222l15.591,0c5.09,0 9.223,-4.132 9.223,-9.222Z" style="fill:#757575;"/><path d="M438.76,294.05c0,-5.09 -4.132,-9.223 -9.222,-9.223l-66.305,0c-5.09,0 -9.223,4.133 -9.223,9.223c0,5.09 4.133,9.223 9.223,9.223l66.305,-0c5.09,-0 9.222,-4.133 9.222,-9.223Z" style="fill:#757575;"/><path d="M582.576,294.05c-0,-5.09 -4.133,-9.223 -9.223,-9.223l-110.621,0c-5.09,0 -9.223,4.133 -9.223,9.223c0,5.09 4.133,9.223 9.223,9.223l110.621,-0c5.09,-0 9.223,-4.133 9.223,-9.223Z" style="fill:#757575;"/></g></g></g></svg>