<?xml version="1.0" encoding="UTF-8" standalone="no"?><!DOCTYPE svg PUBLIC "-//W3C//DTD SVG 1.1//EN"
        "http://www.w3.org/Graphics/SVG/1.1/DTD/svg11.dtd">
<svg xmlns:xlink="http://www.w3.org/1999/xlink" xmlns:serif="http://www.serif.com/" width="100%" height="100%" viewBox="0 0 800 800"
     version="1.1" xmlns="http://www.w3.org/2000/svg" xml:space="preserve"
     style="fill-rule:evenodd;clip-rule:evenodd;stroke-linejoin:round;stroke-miterlimit:2;"><g><g><path d="M400,70.074l-6.866,-3.964l-81.087,140.447l6.866,3.964l81.087,-140.447Z"/><path
        d="M406.866,66.11l-6.866,3.964l81.087,140.447l6.866,-3.964l-81.087,-140.447Z"/><path
        d="M506.866,210.521l-6.866,3.964l81.087,140.446l6.866,-3.964l-81.087,-140.446Z"/><path
        d="M500,214.485l-6.866,-3.964l-81.087,140.446l6.866,3.964l81.087,-140.446Z"/><path
        d="M400,378.538l-6.866,-3.964l-81.087,140.446l6.866,3.964l81.087,-140.446Z"/><path
        d="M600,378.538l-6.866,-3.964l-81.087,140.446l6.866,3.964l81.087,-140.446Z"/></g><g><circle cx="400" cy="66.11" r="50"/>
    <circle cx="500" cy="220.165" r="50"/>
    <circle cx="300" cy="220.165" r="50"/>
    <circle cx="400" cy="374.574" r="50"/>
    <circle cx="600" cy="374.574" r="50"/>
    <circle cx="300" cy="529" r="50"/>
    <circle cx="500" cy="529" r="50"/></g></g></svg>