<?xml version="1.0" encoding="UTF-8" standalone="no"?><!DOCTYPE svg PUBLIC "-//W3C//DTD SVG 1.1//EN"
        "http://www.w3.org/Graphics/SVG/1.1/DTD/svg11.dtd">
<svg xmlns:xlink="http://www.w3.org/1999/xlink" xmlns:serif="http://www.serif.com/" width="100%" height="100%" viewBox="0 0 800 800"
     version="1.1" xmlns="http://www.w3.org/2000/svg" xml:space="preserve"
     style="fill-rule:evenodd;clip-rule:evenodd;stroke-linejoin:round;stroke-miterlimit:2;"><path id="Sides" d="M800,400l-200,346.41l-400,0l-200,-346.41l200,-346.41l400,-0l200,346.41Zm-53.694,-0l-173.153,299.91c0,0 -346.306,0 -346.306,0c-0,0 -173.153,-299.91 -173.153,-299.91c-0,0 173.153,-299.91 173.153,-299.91c-0,-0 346.306,-0 346.306,-0l173.153,299.91Z" style="fill:#64ffda;"/>
    <path id="A"
          d="M364.82,177.579l71.008,-0l144.627,444.842l-58.107,0l-35.51,-113.632l-176.258,0l-35.51,113.632l-55.525,0l145.275,-444.842Zm34.212,47.777l72.956,236.948l-146.559,-0l73.603,-236.948Z"
          style="fill:#64ffda;"/></svg>