<?xml version="1.0" encoding="UTF-8" standalone="no"?><!DOCTYPE svg PUBLIC "-//W3C//DTD SVG 1.1//EN" "http://www.w3.org/Graphics/SVG/1.1/DTD/svg11.dtd"><svg width="100%" height="100%" viewBox="0 0 800 800" version="1.1" xmlns="http://www.w3.org/2000/svg" xmlns:xlink="http://www.w3.org/1999/xlink" xml:space="preserve" xmlns:serif="http://www.serif.com/" style="fill-rule:evenodd;clip-rule:evenodd;stroke-linecap:round;stroke-linejoin:round;stroke-miterlimit:1.5;"><g><path id="uinner" d="M413.082,162.733c0,-0 32.22,2.893 29.654,16.081c-2.832,14.558 -16.645,10.603 -16.645,10.603c-14.535,-4.169 -49.132,-8.36 -78.394,21.115c-14.933,15.041 -32.765,48.093 -16.332,87.586c12.237,29.407 43.164,50.055 76.117,48.957c16.213,-0.541 24.336,-3.91 36.763,-10.69c13.571,-7.364 22.863,-17.248 29.748,-29.564c6.818,-12.193 14.714,-37.344 8.983,-57.244c-2.99,-10.381 -2.911,-17.852 6.47,-21.039c8.073,-2.743 15.903,3.378 18.841,19.55c4.316,23.76 -0.344,53.474 -15.05,74.393c-20.728,29.485 -47.214,46.539 -85.749,48.24c-20.939,0.925 -51.332,-3.678 -78.88,-33.201c-14.281,-15.306 -29.596,-36.863 -28.014,-78.376c0.683,-17.943 6.871,-42.542 29.818,-65.74c18.973,-19.18 42.428,-32.094 82.67,-30.671Z" style="fill:#ee2647;stroke:#000;stroke-opacity:0;stroke-width:1px;"/><ellipse cx="469.397" cy="201.109" rx="12.397" ry="11.616" style="stroke:#000;stroke-width:1px;"/><path d="M404.879,91.429c-0.258,0 -0.516,0.004 -0.774,0.012c-33.272,1.026 -66.62,9.769 -93.957,28.936c-28.299,19.833 -51.794,45.716 -66.15,83.271c-18.9,47.628 -11.656,110.603 17.568,154.722c0.354,0.535 0.728,1.055 1.122,1.561l122.763,157.535c4.734,6.076 12.004,9.63 19.706,9.634c7.702,0.004 14.976,-3.542 19.716,-9.613l117.942,-151.018c0.009,-0.012 0.019,-0.024 0.028,-0.036c30.575,-39.297 37.096,-87.39 32.769,-124.573c-4.903,-46.617 -30.602,-83.374 -55.855,-106.564c-0.314,-0.288 -0.636,-0.569 -0.964,-0.841c-31.652,-26.211 -68.364,-43.019 -113.914,-43.026Zm-0.004,25c39.213,0.006 70.725,14.717 97.973,37.281c21.566,19.805 43.77,51.076 47.921,90.951c3.712,31.728 -1.554,72.869 -27.657,106.421l-117.942,151.018l-122.762,-157.536c-24.908,-37.604 -31.28,-91.274 -15.114,-131.843c12.376,-32.465 32.764,-54.745 57.206,-71.873c23.357,-16.378 51.946,-23.542 80.375,-24.419Z"/></g><g><path id="binner" d="M462.486,466.496c46.308,6.685 86.348,16.89 109.09,40.308c16.821,19.652 11.61,39.157 -19.744,58.487c-36.822,18.995 -85.781,29.979 -151.832,29.684c-41.454,-0.056 -81.175,-6.21 -118.909,-19.349c-18.716,-8.543 -41.515,-17.886 -49.165,-36.047c-2.232,-5.299 -3.394,-10.969 -1.824,-17.72c2.992,-11.927 14.141,-23.421 36.116,-34.34c6.436,-1.934 12.477,-0.578 14.703,4.955c2.784,6.92 -3.251,12.902 -12.431,17.457c-15.31,8.844 -17.904,17.565 -12.677,26.837c13.378,17.044 46.663,25.476 85.59,31.467c39.685,5.128 80.47,5.574 122.529,0.594c38.346,-4.837 66.669,-12.786 83.11,-24.426c8.032,-6.705 11.006,-12.861 9.815,-18.417c-2.325,-10.844 -18.401,-19.931 -41.026,-27.022c-20.934,-6.058 -44.066,-10.071 -69.409,-12.026l16.064,-20.442Z" style="stroke:#000;stroke-width:1px;"/><path id="bouter" d="M568.123,451.421c3.233,-7.1 10.808,-6.892 19.071,-4.039c40.668,15.656 67.965,31.267 84.376,46.843c26.158,24.627 33.758,49.148 27.926,73.592c-9.766,33.263 -39.816,53.289 -71.736,72.094c-56.047,26.966 -118.929,41.133 -187.845,44.002c-66.992,3.746 -128.024,-2.816 -184.448,-17.348c-52.804,-13.96 -98.158,-34.784 -128.631,-69.316c-18.093,-23.652 -22.676,-48.071 -10.606,-73.433c16.532,-31.402 51.194,-55.101 99.047,-73.197c32.322,-12.123 65.881,-20.091 100.388,-24.872l16.904,21.276c-67.05,8.434 -123.213,23.563 -161.076,49.946c-29.806,20.922 -42.68,43.546 -35.674,68.17c8.921,27.443 38.282,48.398 80.559,65.252c58.005,20.836 120.074,31.107 186.17,30.914c57.723,0.316 112.363,-6.283 163.405,-20.951c48.069,-16.723 94.168,-34.787 109.053,-74.09c7.175,-24.461 -3.959,-46.825 -32.143,-67.238c-18.119,-12.397 -40.467,-23.446 -68.977,-32.53c-5.325,-2.957 -8.893,-8.202 -5.763,-15.075Z" style="stroke:#000;stroke-width:1px;"/><ellipse cx="526.366" cy="443.587" rx="12.397" ry="11.616" style="fill:#ee2647;stroke:#000;stroke-width:1px;"/><ellipse cx="306.891" cy="484.233" rx="12.397" ry="11.616" style="fill:#ee2647;stroke:#000;stroke-width:1px;"/></g></svg>